<svg width="150" height="150" viewBox="0 0 150 150" fill="none" xmlns="http://www.w3.org/2000/svg">
<path d="M57.5233 58.6374C61.4492 58.6374 64.6316 55.4549 64.6316 51.5291C64.6316 47.6033 61.4492 44.4208 57.5233 44.4208C53.5975 44.4208 50.415 47.6033 50.415 51.5291C50.415 55.4549 53.5975 58.6374 57.5233 58.6374Z" fill="#545B5C"/>
<path d="M92.8563 58.6374C96.7822 58.6374 99.9647 55.4549 99.9647 51.5291C99.9647 47.6033 96.7822 44.4208 92.8563 44.4208C88.9305 44.4208 85.748 47.6033 85.748 51.5291C85.748 55.4549 88.9305 58.6374 92.8563 58.6374Z" fill="#545B5C"/>
<path d="M38.5216 50.3685L21.8994 57.8056L34.1792 58.0291C33.8543 59.3252 33.6812 60.6799 33.6812 62.0776C33.6812 71.2358 41.1047 78.6605 50.2641 78.6605C51.9176 78.6605 53.5143 78.4171 55.0216 77.9665L56.1609 87.2627L60.6697 74.987C64.437 71.9477 66.847 67.2942 66.847 62.0764C66.847 52.9182 59.422 45.4935 50.2641 45.4935C45.677 45.4935 41.5239 47.3568 38.5213 50.3677V50.3685H38.5216Z" fill="#5960A4"/>
<path d="M32.0887 55.6401C18.2986 55.6401 7.11865 66.8198 7.11865 80.6101C7.11865 94.4004 18.2983 105.58 32.0887 105.58C45.879 105.58 57.0587 94.4004 57.0587 80.6101C57.0587 66.8198 45.8787 55.6401 32.0887 55.6401Z" fill="#545B5C"/>
<path d="M32.0888 59.5538C20.46 59.5538 11.0322 68.9813 11.0322 80.6089C11.0322 92.2377 20.4597 101.664 32.0888 101.664C43.7179 101.664 53.1438 92.2365 53.1438 80.6089C53.1441 68.9798 43.7182 59.5538 32.0888 59.5538Z" fill="white"/>
<path d="M26.7127 100.971C28.4301 101.423 30.231 101.665 32.0901 101.665C43.7189 101.665 53.1452 92.2376 53.1452 80.61C53.1452 69.5671 44.6436 60.5103 33.8289 59.6267C22.4705 60.2071 13.4409 69.5996 13.4409 81.1013C13.4409 90.0606 18.9212 97.7396 26.7142 100.971H26.7127Z" fill="#3C9EB2"/>
<path d="M111.477 50.3683L128.099 57.805L115.819 58.0285C116.144 59.3246 116.317 60.6793 116.317 62.077C116.317 71.2352 108.894 78.66 99.7343 78.66C98.0808 78.66 96.4841 78.4165 94.9767 77.9659L93.8374 87.2621L89.3286 74.9864C85.5613 71.9472 83.1528 67.2936 83.1528 62.0759C83.1528 52.9177 90.5764 45.493 99.7357 45.493C104.323 45.493 108.476 47.3562 111.479 50.3671L111.477 50.3683Z" fill="#5960A4"/>
<path d="M117.91 55.6401C131.7 55.6401 142.88 66.8198 142.88 80.6101C142.88 94.4004 131.7 105.58 117.91 105.58C104.12 105.58 92.9399 94.4004 92.9399 80.6101C92.9399 66.8198 104.12 55.6401 117.91 55.6401Z" fill="#666666"/>
<path d="M59.3115 79.2853L63.7148 73.1663H86.6642L91.0676 79.2853C88.1798 70.4722 93.617 60.4371 104.238 56.0936C90.2379 48.1899 60.1438 48.1899 46.144 56.0936C56.765 60.4371 62.2019 70.4707 59.313 79.2853H59.3115Z" fill="#7178C2"/>
<path d="M75.1895 57.4685C78.3518 57.4685 80.9147 60.0314 80.9147 63.1937C80.9147 66.3549 78.3518 68.9189 75.1895 68.9189C72.0284 68.9189 69.4644 66.356 69.4644 63.1937C69.4644 60.0314 72.0272 57.4685 75.1895 57.4685Z" fill="#666666"/>
<path d="M75.1897 58.6281C77.7107 58.6281 79.7553 60.6727 79.7553 63.1937C79.7553 65.7159 77.7107 67.7594 75.1897 67.7594C72.6687 67.7594 70.624 65.7162 70.624 63.1937C70.624 60.673 72.6687 58.6281 75.1897 58.6281Z" fill="#3BC282"/>
<path d="M117.91 59.5538C106.281 59.5538 96.8535 68.9813 96.8535 80.6089C96.8535 92.2377 106.281 101.664 117.91 101.664C129.539 101.664 138.967 92.2365 138.967 80.6089C138.967 68.9798 129.539 59.5538 117.91 59.5538Z" fill="white"/>
<path d="M112.534 100.971C114.251 101.423 116.052 101.665 117.911 101.665C129.54 101.665 138.967 92.2376 138.967 80.61C138.967 69.5671 130.465 60.5103 119.65 59.6267C108.292 60.2071 99.2622 69.5996 99.2622 81.1013C99.2622 90.0606 104.742 97.7396 112.535 100.971H112.534Z" fill="#3C9EB2"/>
<path d="M33.2822 61.4238C32.4648 61.4238 31.6586 61.4765 30.8682 61.5767C41.2349 61.8811 49.5455 70.3789 49.5455 80.82C49.5455 89.058 44.3708 96.0849 37.0964 98.8332C45.7053 97.0687 52.1799 89.4521 52.1799 80.3205C52.1799 69.8838 43.7198 61.4238 33.2831 61.4238H33.2822ZM119.057 61.4238C118.24 61.4238 117.434 61.4765 116.643 61.5767C127.01 61.8811 135.321 70.3789 135.321 80.82C135.321 89.058 130.146 96.0849 122.872 98.8332C131.481 97.0687 137.955 89.4521 137.955 80.3205C137.955 69.8838 129.495 61.4238 119.058 61.4238H119.057Z" fill="white"/>
</svg>
