<svg width="250" height="250" viewBox="0 0 250 250" fill="none" xmlns="http://www.w3.org/2000/svg">
<path d="M53.2482 93.498C69.0465 93.498 81.8532 106.586 81.8532 122.731C81.8532 145.344 67.3024 136.821 67.3024 161.601C67.3024 163.2 66.0255 164.505 64.4596 164.505H43.4908C41.9235 164.505 40.6476 163.199 40.6476 161.601C40.6476 137.221 24.6427 146.974 24.6427 122.731C24.6422 106.586 37.4498 93.498 53.2482 93.498Z" fill="#3C9EB2"/>
<path d="M44.0421 164.505H63.9098V174.928C63.9098 176.496 62.6276 177.778 61.0592 177.778H46.8912C45.3234 177.778 44.0416 176.496 44.0416 174.928V164.505H44.0421Z" fill="#545B5C"/>
<path d="M43.7054 127.165C44.4686 127.165 45.0868 127.958 45.0868 128.545C45.0868 129.132 44.9066 129.327 44.62 129.58L49.2347 142.911L49.2665 143.001V143.082V164.504H48.2098V143.163L43.6268 129.923C42.9008 129.882 42.3246 129.294 42.3246 128.544C42.3251 127.795 42.9428 127.164 43.7054 127.165ZM62.7894 127.165C62.0267 127.165 61.4091 127.958 61.4091 128.545C61.4091 129.132 61.5892 129.327 61.8759 129.58L57.2606 142.911L57.2294 143.001V143.082V164.504H58.286V143.163L62.869 129.923C63.5951 129.882 64.1713 129.294 64.1713 128.544C64.1708 127.795 63.5531 127.164 62.7894 127.165Z" fill="#ECF0F1"/>
<path d="M54.5269 124.362L53.0874 126.098L62.5732 125.643L50.7754 128.257L51.4019 126.128L45.5933 126.126L54.5269 124.362Z" fill="#DCE3DB"/>
<path d="M196.753 93.498C212.551 93.498 225.358 106.586 225.358 122.731C225.358 145.344 210.807 136.821 210.807 161.601C210.807 163.2 209.531 164.505 207.964 164.505H186.995C185.428 164.505 184.152 163.199 184.152 161.601C184.152 137.221 168.147 146.974 168.147 122.731C168.147 106.586 180.954 93.498 196.753 93.498Z" fill="#3C9EB2"/>
<path d="M187.547 164.505H207.414V174.928C207.414 176.496 206.132 177.778 204.564 177.778H190.397C188.829 177.778 187.547 176.496 187.547 174.928L187.547 164.505Z" fill="#545B5C"/>
<path d="M187.21 127.165C187.973 127.165 188.591 127.958 188.591 128.545C188.591 129.132 188.411 129.327 188.124 129.58L192.739 142.911L192.77 143.001V143.082V164.504H191.714V143.163L187.131 129.923C186.405 129.882 185.828 129.294 185.828 128.544C185.829 127.795 186.447 127.164 187.21 127.165ZM206.294 127.165C205.532 127.165 204.914 127.958 204.914 128.545C204.914 129.132 205.094 129.327 205.38 129.58L200.766 142.911L200.734 143.001V143.082V164.504H201.79V143.163L206.374 129.923C207.1 129.882 207.675 129.294 207.675 128.544C207.675 127.795 207.057 127.164 206.294 127.165Z" fill="#ECF0F1"/>
<path d="M198.031 124.362L196.592 126.098L206.078 125.643L194.28 128.257L194.906 126.128L189.098 126.126L198.031 124.362Z" fill="#DCE3DB"/>
<path d="M125.001 33.145C158.069 33.145 184.875 60.54 184.875 94.3355C184.875 141.667 154.418 123.825 154.418 175.694C154.418 179.041 151.747 181.773 148.468 181.773H104.577C101.297 181.773 98.6265 179.04 98.6265 175.694C98.6265 124.663 65.1265 145.077 65.1265 94.3355C65.126 60.5405 91.9326 33.145 125.001 33.145Z" fill="#5960A4"/>
<path d="M105.731 181.773H147.314V198.716C147.314 201.997 144.63 204.682 141.35 204.682H111.697C108.417 204.682 105.732 201.998 105.732 198.716V181.773H105.731Z" fill="#545B5C"/>
<path d="M184.71 100.038C183.841 107.062 180.167 119.457 165.949 130.78C144.591 147.791 152.262 171.547 149.788 176.66C147.392 181.613 131.723 181.769 130.747 181.773H148.468C151.746 181.773 154.418 179.041 154.418 175.693C154.418 126.037 182.329 140.263 184.71 100.038Z" fill="#7C86E0"/>
<path d="M105.028 103.614C106.625 103.614 107.919 105.275 107.919 106.504C107.919 107.734 107.542 108.141 106.942 108.67L116.601 136.573L116.666 136.762V136.931V181.772H114.455V137.102L104.862 109.391C103.341 109.304 102.137 108.073 102.137 106.504C102.137 104.935 103.431 103.614 105.028 103.614ZM144.974 103.614C143.377 103.614 142.084 105.275 142.084 106.504C142.084 107.734 142.461 108.141 143.06 108.67L133.401 136.573L133.337 136.762V136.931V181.772H135.548V137.102L145.141 109.391C146.661 109.304 147.865 108.073 147.865 106.504C147.865 104.935 146.57 103.614 144.974 103.614Z" fill="white"/>
<path d="M127.867 97.1128L123.757 102.269L152.776 99.5352L117.045 108.764L118.59 102.611L100.771 103.486L127.867 97.1128Z" fill="#3BC282"/>
<path d="M142.245 204.682C142.245 206.07 140.381 207.323 137.388 208.213V209.155C137.388 210.174 136.516 211.008 135.448 211.008H135.448C134.38 211.008 133.507 210.174 133.507 209.155V209.059C131.402 209.384 129.031 209.566 126.522 209.566C124.014 209.566 121.643 209.384 119.538 209.059V209.155C119.538 210.174 118.665 211.008 117.597 211.008H117.597C116.529 211.008 115.657 210.174 115.657 209.155V208.213C112.664 207.324 110.8 206.07 110.8 204.682H142.245Z" fill="#5960A4"/>
<path d="M105.731 192.511H147.314V193.785H105.731V192.511ZM105.731 185.498H147.314V186.772H105.731V185.498ZM105.731 188.684H147.314V189.958H105.731V188.684ZM105.731 195.697H147.314V196.971H105.731V195.697Z" fill="#A4A4A4"/>
<path d="M60.9839 177.777C60.9839 178.402 60.1455 178.965 58.8003 179.366V179.789C58.8003 180.248 58.4082 180.623 57.9277 180.623H57.9272C57.4473 180.623 57.0547 180.248 57.0547 179.789V179.747C56.1079 179.892 55.042 179.975 53.9141 179.975C52.7861 179.975 51.7202 179.892 50.7734 179.747V179.789C50.7734 180.248 50.3813 180.623 49.9009 180.623H49.9004C49.4204 180.623 49.0278 180.248 49.0278 179.789V179.366C47.6821 178.966 46.8442 178.402 46.8442 177.777H60.9839Z" fill="#3C9EB2"/>
<path d="M204.479 177.777C204.479 178.402 203.641 178.965 202.296 179.366V179.789C202.296 180.248 201.904 180.623 201.423 180.623H201.423C200.943 180.623 200.551 180.248 200.551 179.789V179.747C199.604 179.892 198.538 179.975 197.41 179.975C196.282 179.975 195.216 179.892 194.27 179.747V179.789C194.27 180.248 193.877 180.623 193.397 180.623H193.396C192.917 180.623 192.524 180.248 192.524 179.789V179.366C191.179 178.966 190.341 178.402 190.341 177.777H204.479Z" fill="#3C9EB2"/>
<path d="M44.0419 171.162H63.9095V171.816H44.0419V171.162ZM44.0419 167.563H63.9095V168.217H44.0419V167.563ZM44.0419 169.198H63.9095V169.852H44.0419V169.198ZM44.0419 172.798H63.9095V173.452H44.0419V172.798Z" fill="#A4A4A4"/>
<path d="M187.546 171.162H207.414V171.816H187.546V171.162ZM187.546 167.563H207.414V168.217H187.546V167.563ZM187.546 169.198H207.414V169.852H187.546V169.198ZM187.546 172.798H207.414V173.452H187.546V172.798Z" fill="#A4A4A4"/>
</svg>
