<svg width="250" height="250" viewBox="0 0 250 250" fill="none" xmlns="http://www.w3.org/2000/svg">
<path d="M16.7642 57.2412C17.8221 56.5912 19.3996 56.3336 21.3517 56.6587L21.5022 56.6858L117.201 73.9495L117.219 73.9527L117.236 73.9552C118.736 74.1705 119.971 74.377 120.98 74.5458C121.21 74.5844 121.429 74.621 121.636 74.6552C122.701 74.8311 123.576 74.9677 124.156 74.9456L124.156 74.9456C124.728 74.9236 125.415 74.7872 126.521 74.5673L126.692 74.5335C127.938 74.2861 129.803 73.9176 132.787 73.4118L132.792 73.4109L228.49 56.6854C228.49 56.6853 228.49 56.6853 228.491 56.6853C230.512 56.3327 232.147 56.5863 233.235 57.2516C234.271 57.8852 234.94 58.968 234.94 60.6402V165.805C234.94 167.51 234.196 169.356 232.922 170.943C231.65 172.526 229.91 173.777 228.032 174.337L123.535 205.282L21.9716 174.339L21.9662 174.337C20.0894 173.777 18.349 172.527 17.0779 170.944C15.8036 169.357 15.0601 167.511 15.0601 165.805V60.6407C15.0601 58.9665 15.7292 57.8772 16.7642 57.2412Z" fill="#3C9EB2" stroke="white" stroke-width="2"/>
<path d="M132.787 73.4127L132.792 73.4118L228.49 56.6863C230.512 56.3336 232.146 56.5872 233.234 57.2525C234.27 57.8861 234.939 58.9689 234.939 60.6411V165.807C234.939 167.513 234.196 169.361 232.921 170.95C231.65 172.534 229.909 173.784 228.034 174.339L228.034 174.339L124.531 204.99V74.9182C125.032 74.8641 125.645 74.7424 126.521 74.5683C126.577 74.5572 126.634 74.5459 126.691 74.5345C127.938 74.2871 129.803 73.9186 132.787 73.4127Z" fill="#3C9EB2" stroke="white" stroke-width="2"/>
<path d="M230.314 56.2602L138.192 45.1061C134.779 44.693 128.345 44.4696 124.174 44.9233L230.314 56.2602ZM230.314 56.2602V56.2609L231.194 56.3677C231.271 56.377 231.344 56.3867 231.415 56.3967C231.013 56.4985 230.529 56.5966 229.961 56.6846C229.961 56.6846 229.961 56.6846 229.961 56.6847L187.435 63.2603L180.884 64.2734L180.871 64.2756L130.493 72.7605C130.163 72.8161 129.828 72.8754 129.487 72.9357C127.79 73.2363 125.97 73.5587 124.052 73.5382L124.052 73.5382C121.863 73.5163 119.573 73.1073 117.676 72.7686C117.294 72.7004 116.927 72.635 116.581 72.5761L21.547 56.321L21.5463 56.3208C21.3934 56.2948 21.2511 56.2683 21.1189 56.2415C21.5522 56.1529 22.0747 56.072 22.6869 56.0054L22.6872 56.0053L82.8322 49.438L82.8325 49.4379L85.6994 49.124L85.6997 49.124L124.174 44.9234L230.314 56.2602ZM232.781 56.7517C232.781 56.7518 232.779 56.7507 232.776 56.7483C232.78 56.7505 232.781 56.7517 232.781 56.7517ZM232.727 55.896C232.73 55.8939 232.731 55.8929 232.731 55.893C232.731 55.893 232.73 55.8941 232.727 55.896ZM19.7543 55.8056C19.7544 55.8056 19.755 55.8061 19.7561 55.8071C19.7549 55.8061 19.7543 55.8056 19.7543 55.8056ZM19.7572 56.6857C19.7571 56.6857 19.7583 56.6846 19.7611 56.6825C19.7586 56.6847 19.7573 56.6858 19.7572 56.6857Z" fill="#3C9EB2" stroke="white" stroke-width="2"/>
<path d="M159.532 46.6812L65.6147 64.8731L89.127 68.8936L175.736 48.6445L159.532 46.6812Z" fill="#3BC282"/>
<path d="M89.127 73.001C90.5615 89.2168 92.9414 103.636 80.8545 115.488L60.5083 107.237L89.127 73.001Z" fill="#545B5C"/>
<path d="M65.6136 64.8735C68.0804 76.6309 69.9926 95.1265 57.3578 100.471L80.8563 110.469C95.3612 101.724 88.372 72.6055 89.1278 68.894L65.6136 64.8735Z" fill="#3BC282"/>
<path d="M38.1063 125.592C38.1063 122.633 38.8104 120.527 40.2211 119.275C41.6312 118.022 43.7445 117.727 46.5638 118.389C49.3832 119.049 51.4974 120.338 52.9066 122.252C54.3168 124.167 55.0214 126.604 55.0214 129.562V130.71L49.5922 129.436V127.922C49.5922 126.599 49.3397 125.609 48.8353 124.952C48.3309 124.294 47.6263 123.858 46.7206 123.646C45.8168 123.433 45.1102 123.538 44.6058 123.958C44.1014 124.379 43.849 125.25 43.849 126.573C43.849 127.826 44.1268 128.995 44.6844 130.084C45.2416 131.171 45.9369 132.239 46.7723 133.289C47.6078 134.337 48.5038 135.401 49.4603 136.478C50.4169 137.555 51.3138 138.696 52.1483 139.901C52.9833 141.106 53.6801 142.417 54.2362 143.836C54.7933 145.254 55.0717 146.833 55.0717 148.574C55.0717 151.532 54.3495 153.633 52.9047 154.878C51.4598 156.123 49.3285 156.414 46.5101 155.753C43.6908 155.092 41.5599 153.798 40.1156 151.876C38.6708 149.954 37.9486 147.514 37.9486 144.556V142.311L43.3778 143.585V146.195C43.3778 147.518 43.6483 148.503 44.1874 149.152C44.7264 149.8 45.4491 150.23 46.3544 150.443C47.2582 150.655 47.9808 150.565 48.5214 150.169C49.0604 149.773 49.3309 148.915 49.3309 147.592C49.3309 146.339 49.0516 145.169 48.4955 144.081C47.9384 142.994 47.243 141.926 46.4076 140.876C45.5721 139.828 44.6761 138.764 43.7196 137.686C42.7631 136.609 41.8661 135.468 41.0316 134.263C40.1971 133.058 39.5009 131.745 38.9437 130.327C38.3842 128.91 38.1063 127.331 38.1063 125.592Z" fill="#545B5C"/>
<path d="M64.1018 138.322L71.9836 140.173V145.394L64.1018 143.542V154.243L74.0198 156.572V161.792L58.3601 158.117V121.577L74.0198 125.252V130.473L64.1018 128.144V138.323V138.322Z" fill="#545B5C"/>
<path d="M82.842 155.459C82.842 156.782 83.1126 157.776 83.6516 158.442C84.1907 159.108 84.9133 159.547 85.8186 159.76C86.7224 159.972 87.4451 159.873 87.9856 159.459C88.5247 159.046 88.7937 158.179 88.7937 156.856V137.125C88.7937 135.801 88.5247 134.808 87.9856 134.142C87.4451 133.476 86.7239 133.036 85.8186 132.824C84.9148 132.611 84.1921 132.711 83.6516 133.125C83.1126 133.537 82.842 134.404 82.842 135.728V155.459ZM77.1003 134.744C77.1003 131.785 77.8484 129.689 79.3455 128.459C80.8416 127.227 82.9993 126.941 85.8186 127.602C88.6379 128.264 90.7942 129.563 92.2918 131.497C93.7878 133.432 94.5369 135.878 94.5369 138.837V157.838C94.5369 160.797 93.7888 162.893 92.2918 164.123C90.7957 165.355 88.6379 165.641 85.8186 164.979C82.9993 164.318 80.8416 163.02 79.3455 161.084C77.8494 159.149 77.1003 156.703 77.1003 153.744V134.743V134.744Z" fill="#545B5C"/>
<path d="M200.736 123.122V115.466L196.83 115.003C196.597 113.341 196.235 111.735 195.755 110.2L198.905 107.309L195.716 100.751L192.102 102.702C191.217 101.437 190.232 100.277 189.162 99.2388L190.718 94.8652L185.194 91.1626L182.845 94.9985L182.846 95.0024C181.559 94.4556 180.213 94.0508 178.824 93.8037L178.364 89.125L171.986 89.271L171.526 93.9702C170.138 94.2817 168.793 94.7466 167.506 95.3521L165.157 91.6235L159.633 95.5771L161.189 99.8794C160.118 100.967 159.133 102.172 158.249 103.477L154.634 101.691L151.445 108.395L154.596 111.144C154.115 112.699 153.754 114.322 153.521 115.994L149.615 116.634V124.291L153.521 124.753C153.754 126.414 154.115 128.02 154.596 129.555L151.445 132.446L154.634 139.004L158.249 137.053C159.133 138.319 160.119 139.478 161.189 140.517L159.633 144.89L165.157 148.591L167.506 144.755C168.793 145.304 170.138 145.707 171.526 145.954L171.986 150.633L178.364 150.487L178.824 145.788C180.212 145.476 181.558 145.011 182.845 144.406L185.194 148.134L190.718 144.181L189.162 139.877C190.232 138.79 191.217 137.584 192.102 136.279L195.716 138.065L198.905 131.361L195.755 128.613C196.235 127.058 196.597 125.434 196.83 123.762L200.736 123.122ZM175.174 130.129C170.456 130.237 166.631 125.733 166.631 120.07C166.631 114.407 170.457 109.729 175.174 109.622C179.892 109.514 183.717 114.017 183.717 119.681C183.717 125.344 179.891 130.022 175.174 130.129Z" fill="#5960A4"/>
<path d="M175.174 105.539C168.576 105.69 163.228 112.231 163.228 120.15C163.228 128.07 168.577 134.366 175.174 134.217C181.772 134.066 187.12 127.525 187.12 119.606C187.12 111.687 181.772 105.389 175.174 105.539ZM175.174 130.13C170.456 130.238 166.631 125.735 166.631 120.071C166.631 114.408 170.457 109.731 175.174 109.623C179.892 109.515 183.717 114.019 183.717 119.682C183.717 125.346 179.891 130.024 175.174 130.13Z" fill="#7E8AFC"/>
<path d="M211.751 151.098V148.213L210.28 148.04C210.192 147.414 210.056 146.81 209.875 146.231L211.062 145.141L209.861 142.67L208.499 143.404C208.164 142.929 207.795 142.491 207.391 142.1L207.976 140.452L205.895 139.058L205.01 140.502V140.5C204.525 140.293 204.017 140.142 203.495 140.049L203.322 138.287L200.92 138.342L200.747 140.112C200.223 140.228 199.717 140.404 199.232 140.632L198.347 139.227L196.266 140.717L196.851 142.337C196.448 142.747 196.078 143.201 195.743 143.693L194.381 143.021L193.18 145.546L194.367 146.582C194.187 147.168 194.05 147.779 193.963 148.409L192.491 148.651V151.536L193.963 151.709C194.05 152.335 194.186 152.94 194.367 153.518L193.18 154.608L194.381 157.079L195.743 156.345C196.078 156.822 196.447 157.258 196.851 157.65L196.266 159.298L198.347 160.693L199.232 159.248C199.717 159.454 200.225 159.607 200.747 159.7L200.92 161.462L203.322 161.407L203.495 159.637C204.019 159.521 204.525 159.345 205.01 159.117L205.895 160.522L207.976 159.032L207.391 157.412C207.794 157.002 208.164 156.548 208.499 156.056L209.861 156.729L211.062 154.203L209.875 153.167C210.056 152.581 210.193 151.97 210.28 151.34L211.751 151.098ZM202.121 153.739C200.343 153.779 198.902 152.084 198.902 149.949C198.902 147.817 200.343 146.053 202.121 146.014V146.012C203.899 145.973 205.34 147.668 205.34 149.802C205.34 151.937 203.899 153.698 202.121 153.739Z" fill="#5960A4"/>
</svg>
