<svg width="250" height="250" viewBox="0 0 250 250" fill="none" xmlns="http://www.w3.org/2000/svg">
<path d="M126.528 29.1183C151.738 29.1183 172.175 49.5549 172.175 74.7669C172.175 99.9774 151.737 120.414 126.528 120.414C101.318 120.414 80.8796 99.9774 80.8796 74.7669C80.8796 49.5563 101.318 29.1183 126.528 29.1183Z" fill="#5960A4"/>
<path d="M112.95 101.259L89.9789 102.119C84.7221 95.1049 81.4374 86.5296 80.9452 77.2122L113.831 78.5701C114.9 76.2381 117.578 73.0384 119.462 72.512L124.978 66.6009L126.435 61.8919L127.168 56.1775C127.45 53.9856 130.858 53.7693 132.539 55.7859C134.438 58.0627 134.605 63.6116 133.891 66.0965L131.515 74.3919L143.775 74.6849L147.853 74.491C152.214 74.2845 152.862 81.4618 148.137 81.6869L144.431 81.8646L144.328 82.4559L148.588 82.077C152.214 81.7518 152.867 88.6478 148.743 89.0145L143.093 89.5194L142.975 90.1913L147.15 89.8138C148.573 89.6849 149.812 91.1639 149.812 93.0897V93.0907C149.812 95.0155 148.709 96.5165 147.289 96.6791L142.466 97.2348L142.473 97.601L145.629 97.4696C148.942 97.3329 149.088 103.257 145.966 103.59L142.012 104.012L142.01 104.036L141.342 104.083L141.328 104.084V104.083L135.122 104.525L120.873 105.025C117.901 105.129 115.382 103.71 113.925 102.396C113.509 102.017 113.181 101.631 112.95 101.259Z" fill="#FED298"/>
<path d="M101.536 75.5335L101.858 103.457L91.6619 104.228C84.9431 96.2851 80.8884 86.0165 80.8796 74.7996L101.535 75.534L101.536 75.5335Z" fill="#545B5C"/>
<path d="M106.515 76.3377L106.948 102.556L101.873 102.582L101.439 76.3636L106.514 76.3377H106.515Z" fill="white"/>
<path d="M96.2035 99.3368C96.2152 100.558 95.2596 101.558 94.0697 101.571C92.8793 101.584 91.9046 100.602 91.8939 99.3812C91.8822 98.1605 92.8378 97.1591 94.0277 97.1473C95.2186 97.1351 96.1942 98.1151 96.2035 99.3368Z" fill="#3BC282"/>
<path d="M130.168 56.5896L129.932 60.3772C129.013 60.0745 128.068 59.9177 127.071 60.0745L127.355 56.6262C127.531 54.4895 130.302 54.468 130.168 56.5896Z" fill="white"/>
<path d="M127.809 41.0954H129.167V47.175H127.809V41.0954ZM121.786 41.7556L120.478 42.1242L122.127 47.9748L123.435 47.6062L121.786 41.7556ZM134.668 41.7556L135.975 42.1242L134.326 47.9748L133.019 47.6062L134.668 41.7556ZM154.004 67.1468L153.898 68.5013L147.837 68.0286L147.942 66.6751L154.004 67.1468ZM153.306 60.2898L153.573 61.6218L147.612 62.8123L147.345 61.4793L153.306 60.2898ZM150.776 53.8791L151.393 55.0891L145.979 57.8518L145.361 56.6428L150.776 53.8791ZM146.599 48.3957L147.521 49.3928L143.06 53.5212L142.137 52.5242L146.599 48.3957ZM141.093 44.2512L142.251 44.9597L139.077 50.1433L137.92 49.4338L141.093 44.2512ZM102.45 67.1468L102.556 68.5013L108.616 68.0286L108.511 66.6751L102.45 67.1468ZM103.147 60.2898L102.882 61.6218L108.843 62.8123L109.11 61.4793L103.148 60.2898H103.147ZM105.679 53.8791L105.061 55.0891L110.476 57.8518L111.093 56.6428L105.679 53.8791ZM109.856 48.3957L108.933 49.3928L113.395 53.5212L114.317 52.5242L109.856 48.3957ZM115.362 44.2512L114.204 44.9597L117.378 50.1433L118.536 49.4338L115.362 44.2512Z" fill="white"/>
<path d="M52.5936 129.273C63.2992 129.273 71.9794 120.594 71.9794 109.886C71.9794 99.1781 63.2992 90.4989 52.5936 90.4989C41.886 90.4989 33.2063 99.1781 33.2063 109.886C33.2063 120.594 41.887 129.273 52.5936 129.273Z" fill="#3C9EB2"/>
<path d="M46.8273 98.6361L37.0714 98.2709C34.8385 101.25 33.4435 104.892 33.2345 108.849L47.2009 108.271C47.655 109.262 48.7922 110.621 49.592 110.845L51.9348 113.355L52.5539 115.356L52.8649 117.782C52.9855 118.713 54.4328 118.805 55.1462 117.949C55.9528 116.982 56.0231 114.625 55.7214 113.57L54.7126 110.048L59.9187 109.924L61.6511 110.006C63.5032 110.094 63.7781 107.045 61.7717 106.95L60.1975 106.874L60.153 106.623L61.9617 106.785C63.5012 106.922 63.779 103.994 62.0276 103.838L59.6281 103.624L59.5783 103.339L61.3513 103.499C61.9553 103.554 62.4817 102.926 62.4817 102.108C62.4817 101.291 62.0134 100.654 61.4104 100.584L59.3625 100.348L59.3659 100.193L60.7077 100.249C62.1145 100.308 62.176 97.7914 60.8508 97.6503L59.1716 97.4706L59.1706 97.4599L58.8864 97.4394L58.8811 97.4384L56.2448 97.2514L50.1931 97.0395C48.9313 96.995 47.861 97.5985 47.2424 98.1562C47.0646 98.3153 46.9245 98.4794 46.8278 98.6371C46.8273 98.6371 46.8273 98.6361 46.8273 98.6361Z" fill="#FED298"/>
<path d="M41.9798 109.562L42.1165 97.703L37.7864 97.3754C34.9324 100.748 33.2107 105.111 33.2073 109.873L41.9798 109.562Z" fill="#545B5C"/>
<path d="M44.0939 109.22L44.278 98.0849L42.1227 98.0741L41.9386 109.209L44.0939 109.22Z" fill="white"/>
<path d="M39.7145 99.4521C39.7199 98.933 39.3141 98.5092 38.8083 98.5038C38.3034 98.4984 37.8888 98.915 37.8849 99.434C37.8796 99.953 38.2853 100.377 38.7902 100.382C39.2956 100.388 39.7092 99.9706 39.7145 99.4521Z" fill="#3BC282"/>
<path d="M54.1393 117.608L54.0392 115.999C53.6486 116.127 53.2467 116.194 52.8239 116.127L52.9445 117.591C53.0182 118.499 54.1954 118.509 54.1393 117.608Z" fill="white"/>
<path d="M203.978 104.408C214.684 104.408 223.365 95.7284 223.365 85.0203C223.365 74.3123 214.685 65.6331 203.978 65.6331C193.27 65.6331 184.591 74.3133 184.591 85.0203C184.591 95.7279 193.271 104.408 203.978 104.408Z" fill="#3C9EB2"/>
<path d="M198.212 73.7698L188.456 73.4046C186.223 76.3836 184.828 80.0252 184.619 83.9823L198.586 83.4051C199.04 84.3954 200.178 85.7542 200.977 85.9784L203.32 88.4891L203.939 90.4896L204.25 92.9159C204.369 93.8471 205.818 93.9389 206.531 93.0824C207.338 92.1156 207.408 89.7587 207.106 88.704L206.097 85.18L211.303 85.056L213.036 85.138C214.888 85.2264 215.162 82.1776 213.156 82.0824L211.582 82.0067L211.537 81.7557L213.346 81.9168C214.887 82.0545 215.163 79.1263 213.412 78.9705L211.013 78.7562L210.963 78.471L212.736 78.6312C213.34 78.6864 213.867 78.0584 213.867 77.2406C213.867 76.4232 213.398 75.785 212.795 75.7161L210.747 75.4803L210.75 75.3255L212.092 75.3817C213.499 75.4398 213.56 72.9236 212.235 72.7825L210.556 72.6028L210.555 72.5921L210.272 72.5716L210.265 72.5706L207.629 72.3836L201.577 72.1717C200.316 72.1273 199.245 72.7308 198.627 73.2884C198.449 73.4476 198.309 73.6116 198.212 73.7698Z" fill="#FED298"/>
<path d="M193.364 84.6956L193.501 72.8372L189.171 72.5096C186.317 75.8821 184.595 80.2449 184.592 85.0077L193.365 84.6952H193.364V84.6956H193.364Z" fill="#545B5C"/>
<path d="M195.479 84.3539L195.663 73.2191L193.508 73.2083L193.324 84.3431L195.479 84.3539Z" fill="white"/>
<path d="M191.1 74.5862C191.105 74.0672 190.699 73.6433 190.195 73.638C189.689 73.6326 189.275 74.0491 189.27 74.5681C189.264 75.0862 189.671 75.511 190.175 75.5164C190.681 75.5213 191.095 75.1048 191.1 74.5862Z" fill="#3BC282"/>
<path d="M205.524 92.7406L205.424 91.1322C205.033 91.2602 204.631 91.3271 204.208 91.2602L204.329 92.724C204.403 93.6313 205.58 93.641 205.524 92.7392V92.7406Z" fill="white"/>
<path d="M66.03 169.362L82.5408 166.945L87.1024 169.362V244.144C79.761 241.811 72.7151 238.819 66.031 235.237V169.362H66.03ZM166.199 243.043V169.362L182.711 166.945L187.273 169.362V233.409C180.612 237.243 173.561 240.474 166.199 243.043Z" fill="#3C9EB2"/>
<path d="M61.4679 166.945H82.5402V242.599C75.1691 239.936 68.1217 236.599 61.4679 232.664V166.945ZM161.637 244.54V166.945H182.71V235.902C176.017 239.391 168.972 242.294 161.637 244.54Z" fill="#3EA8BE"/>
<path d="M61.4679 166.945H82.5402V169.674V188.882H61.4679V166.945ZM161.637 188.882V166.945H182.71V188.882H161.637Z" fill="white"/>
<path d="M137.301 144.815L109.291 183.05L122.393 180.893L110.767 214.295L138.777 176.06L125.677 178.217L137.301 144.815Z" fill="#3BC282"/>
<path d="M82.5399 166.945L87.1015 169.362V190.687L82.5399 188.882V166.945Z" fill="#ECF0F1"/>
<path d="M182.71 166.945L187.272 169.362V190.687L182.71 188.882V166.945Z" fill="#ECF0F1"/>
<path d="M173.133 139.639V155.852H171.16V139.639H173.133ZM75.6043 139.639V155.852H77.5774V139.639H75.6043ZM70.384 146.062V159.239H72.3587V146.062H70.384ZM178.354 146.062V159.239H176.381V146.062H178.354Z" fill="white"/>
</svg>
