<svg width="250" height="250" viewBox="0 0 250 250" fill="none" xmlns="http://www.w3.org/2000/svg">
<path opacity="0.8" d="M23.8721 25.9941H215.255C221.543 25.9941 226.687 31.1381 226.687 37.4257V155.319H12.4399V37.4257C12.4399 31.1381 17.5845 25.9941 23.8721 25.9941Z" fill="#545B5C"/>
<path d="M20.2026 147.557H218.925V37.4258C218.925 35.4233 217.258 33.7568 215.256 33.7568H23.8721C21.8696 33.7568 20.2031 35.4233 20.2031 37.4258V147.557H20.2026Z" fill="white"/>
<path d="M226.688 155.32V167.823C226.688 174.11 221.018 179.254 214.085 179.254H25.0425C18.1099 179.254 12.4399 174.11 12.4399 167.823V155.32H226.688Z" fill="#3C9EB2"/>
<path d="M63.5986 147.56V33.7588H23.8701C21.8677 33.7588 20.2012 35.4253 20.2012 37.4277V147.559H63.5967L63.5986 147.56Z" fill="#3C9EB2"/>
<path d="M28.9462 47.1797H56.0277V50.4995H28.9462V47.1797ZM28.9462 127.07H56.0277V130.39H28.9462V127.07ZM28.9462 111.092H51.6679V114.412H28.9462V111.092ZM28.9462 95.1138H56.0277V98.4336H28.9462V95.1138ZM28.9462 79.1348H45.8583V82.4546H28.9462V79.1348ZM28.9462 63.1562H47.5184V66.4761H28.9462V63.1562Z" fill="white"/>
<path d="M97.7389 46.8716H72.6266V50.1553H97.7389V46.8716Z" fill="#5960A4"/>
<path d="M139.771 46.8716H102.505V50.1553H139.771V46.8716Z" fill="#3BC282"/>
<path d="M97.7389 57.5049H72.6266V60.7886H97.7389V57.5049Z" fill="#3C9EB2"/>
<path d="M147.422 57.5049H102.505V60.7886H147.422V57.5049Z" fill="#3BC282"/>
<path d="M157.487 57.5049H150.96V60.7886H157.487V57.5049Z" fill="#5960A4"/>
<path d="M89.2252 68.1382H72.6266V71.4219H89.2252V68.1382Z" fill="#3BC282"/>
<path d="M127.617 68.1382H94.0792V71.4219H127.617V68.1382Z" fill="#3C9EB2"/>
<path d="M157.491 68.1382H132.379V71.4219H157.491V68.1382Z" fill="#5960A4"/>
<path d="M97.8662 78.6133H72.7539V81.897H97.8662V78.6133Z" fill="#5960A4"/>
<path d="M156.745 78.772H103.996V82.0557H156.745V78.772Z" fill="#3BC282"/>
<path d="M181.365 78.772H159.357V82.0557H181.365V78.772Z" fill="#3C9EB2"/>
<path d="M103.48 89.4053H72.6266V92.689H103.48V89.4053Z" fill="#3BC282"/>
<path d="M140.186 89.4053H109.333V92.689H140.186V89.4053Z" fill="#3C9EB2"/>
<path d="M177.014 89.2466H146.161V92.5303H177.014V89.2466Z" fill="#5960A4"/>
<path d="M97.8662 99.8804H72.7539V103.164H97.8662V99.8804Z" fill="#5960A4"/>
<path d="M117.568 100.039H102.505V103.323H117.568V100.039Z" fill="#3C9EB2"/>
<path d="M135.487 100.039H120.424V103.323H135.487V100.039Z" fill="#3BC282"/>
<path d="M143.522 196.695L161.147 202.342H77.9824L92.2017 196.695V179.257H143.522V196.695Z" fill="#3C9EB2"/>
<path d="M143.522 196.695L92.2017 179.257H143.522V196.695Z" fill="#308EA1"/>
<path opacity="0.2" d="M92.2017 196.695H143.522L161.147 202.342V204.775H119.565H77.98V202.342L92.1992 196.695H92.2017Z" fill="#318DA1"/>
<path d="M119.562 171.107C121.669 171.107 123.377 169.398 123.377 167.291C123.377 165.183 121.669 163.475 119.562 163.475C117.454 163.475 115.746 165.183 115.746 167.291C115.746 169.398 117.454 171.107 119.562 171.107Z" fill="white"/>
</svg>
