<svg width="250" height="250" viewBox="0 0 250 250" fill="none" xmlns="http://www.w3.org/2000/svg">
<path d="M32.2158 32.8231H217.781C223.878 32.8231 228.865 37.8119 228.865 43.908V158.218H21.1328V43.9075C21.1328 37.8109 26.1206 32.8226 32.2177 32.8226L32.2158 32.8231Z" fill="#545B5C"/>
<path d="M28.6592 150.691H221.34V43.9076C221.34 41.9657 219.723 40.3495 217.782 40.3495H32.2168C30.2749 40.3495 28.6597 41.9657 28.6597 43.9076V150.691H28.6592V150.691Z" fill="#3C9EB2"/>
<path d="M228.865 158.218V170.34C228.865 176.438 223.367 181.425 216.646 181.425H33.352C26.6308 181.425 21.1328 176.438 21.1328 170.34V158.218H228.865Z" fill="#3C9EB2"/>
<path d="M68.9631 56.4099H181.034H197.717C199.739 56.4099 201.392 58.0642 201.392 60.0852V81.9581V150.692H48.6047L48.6038 81.9581V60.0852C48.6038 58.0632 50.2571 56.4099 52.279 56.4099H68.9616H68.9631Z" fill="white"/>
<path d="M52.2801 56.4099H197.719C199.741 56.4099 201.394 58.0632 201.394 60.0852V67.4353H48.6049V60.0852C48.6049 58.0637 50.2582 56.4099 52.2801 56.4099Z" fill="#545B5C"/>
<path d="M110.538 60.217H190.43C190.974 60.217 191.418 60.6628 191.418 61.2043V63.0369C191.418 63.5793 190.973 64.0242 190.43 64.0242H110.538C109.996 64.0242 109.551 63.5808 109.551 63.0369V61.2043C109.552 60.6604 109.995 60.217 110.538 60.217Z" fill="white"/>
<path d="M57.2903 59.5624C58.4582 59.5624 59.406 60.5087 59.406 61.6791C59.406 62.848 58.4577 63.7948 57.2903 63.7948C56.1204 63.7948 55.1726 62.8485 55.1726 61.6791C55.1731 60.5087 56.1213 59.5624 57.2903 59.5624Z" fill="#3BC282"/>
<path d="M65.6438 59.5624C66.8137 59.5624 67.7605 60.5087 67.7605 61.6791C67.7605 62.848 66.8142 63.7948 65.6438 63.7948C64.4758 63.7948 63.5281 62.8485 63.5281 61.6791C63.5281 60.5087 64.4758 59.5624 65.6438 59.5624Z" fill="#5960A4"/>
<path d="M73.9998 59.5624C75.1677 59.5624 76.1155 60.5087 76.1155 61.6791C76.1155 62.848 75.1672 63.7948 73.9998 63.7948C72.8298 63.7948 71.8821 62.8485 71.8821 61.6791C71.8816 60.5087 72.8298 59.5624 73.9998 59.5624Z" fill="#3C9EB2"/>
<path d="M161.887 83.0309C157.312 77.6213 149.143 76.9362 143.734 81.5109L115.61 105.375C110.2 109.949 109.32 118.117 114.194 123.527V123.528C118.579 128.938 126.834 129.622 132.244 125.047L160.419 101.184C165.828 96.6095 166.461 88.4405 161.887 83.0309ZM157.24 97.4073L128.94 121.334C125.785 124.002 121.022 123.603 118.354 120.449L117.75 119.734C115.083 116.58 115.481 111.816 118.635 109.147L146.936 85.2203C150.091 82.5529 154.853 82.9518 157.522 86.1061L158.126 86.8209C160.794 89.9772 160.394 94.7398 157.24 97.4073Z" fill="#3C9EB2"/>
<path d="M128.814 96.7877V96.7867C124.428 91.3771 116.109 90.7638 110.699 95.3375L82.5104 119.272H82.5094C77.1007 123.658 76.4157 131.943 80.9903 137.304H80.9913C85.565 142.664 93.7325 143.388 99.1426 138.814L127.331 114.945C132.741 110.37 133.687 102.197 128.814 96.7877ZM124.242 111.164L95.9415 135.091C92.7872 137.758 88.0235 137.36 85.3551 134.206L84.7511 133.491C82.0836 130.335 82.4825 125.573 85.6368 122.904L113.937 98.9771C117.092 96.3096 121.855 96.7086 124.523 99.8638L125.127 100.578C127.794 103.733 127.396 108.497 124.242 111.164Z" fill="#3BC282"/>
<path d="M123.348 98.7472L127.415 95.3087C127.937 95.7545 128.432 96.2472 128.888 96.7877L128.889 96.7887C129.515 97.527 130.04 98.3185 130.47 99.1446L126.357 102.622C126.067 101.898 125.658 101.208 125.128 100.581L124.524 99.8668C124.167 99.444 123.772 99.0709 123.349 98.7482L123.348 98.7472Z" fill="#3C9EB2"/>
<path d="M161.993 103.953C167.497 103.953 171.96 99.4909 171.96 93.9864C171.96 88.4819 167.497 84.0197 161.993 84.0197C156.489 84.0197 152.026 88.4819 152.026 93.9864C152.026 99.4909 156.489 103.953 161.993 103.953Z" fill="#5960A4"/>
<path d="M160.123 87.7311H163.859V92.1158H168.244V95.8516H163.859V100.236H160.123V95.8516H155.737V92.1158H160.123V87.7311Z" fill="#FEFEFE"/>
<path d="M125 173.154C127.108 173.154 128.816 171.445 128.816 169.337C128.816 167.229 127.108 165.521 125 165.521C122.892 165.521 121.184 167.229 121.184 169.337C121.184 171.445 122.892 173.154 125 173.154Z" fill="white"/>
<path d="M148.957 198.863L166.581 204.51H83.4153L97.6359 198.863V181.426H148.957V198.863H148.957Z" fill="#3C9EB2"/>
<path d="M97.6359 198.863H148.957L166.582 204.51V206.942H125H83.4153V204.51L97.6359 198.863Z" fill="#308EA1"/>
<path d="M97.6359 181.426H148.957V199.141L97.6359 181.426Z" fill="#308EA1"/>
</svg>
