<svg width="250" height="250" viewBox="0 0 250 250" fill="none" xmlns="http://www.w3.org/2000/svg">
<path d="M32.2176 32.8235H217.783C223.88 32.8235 228.868 37.8123 228.868 43.9085V158.218H21.1326V43.908C21.1326 37.8113 26.1204 32.8235 32.2176 32.8235Z" fill="#666666"/>
<path d="M28.6599 150.692H221.34V43.909C221.34 41.9671 219.724 40.3508 217.783 40.3508H32.2185C30.2766 40.3508 28.6614 41.9671 28.6614 43.909V150.693H28.6599V150.692Z" fill="#3BC282"/>
<path d="M228.867 158.219V170.341C228.867 176.439 223.369 181.426 216.648 181.426H33.3519C26.6306 181.426 21.1326 176.439 21.1326 170.341V158.219H228.867Z" fill="#3C9EB2"/>
<path d="M41.96 86.0596C59.5817 86.0596 74.4666 97.7696 79.2625 113.831C87.118 117.377 92.8715 124.757 94.1386 133.583C95.5229 133.25 96.9691 133.073 98.456 133.073C102.732 133.073 106.668 134.531 109.792 136.976C110.774 130.776 116.145 126.035 122.621 126.035C123.434 126.035 124.23 126.111 125 126.253C125.771 126.11 126.566 126.035 127.379 126.035C133.856 126.035 139.226 130.776 140.208 136.976C143.332 134.531 147.268 133.073 151.544 133.073C153.031 133.073 154.475 133.251 155.861 133.583C157.128 124.756 162.882 117.376 170.737 113.831C175.535 97.7696 190.418 86.0596 208.04 86.0596C212.711 86.0596 217.19 86.8833 221.34 88.3916V150.692H133.155L133.156 150.662L133.095 150.692H116.907L116.846 150.662L116.847 150.692H28.6611V88.3916C32.8111 86.8833 37.2896 86.0596 41.9615 86.0596H41.96Z" fill="#ECF0F1"/>
<path d="M41.96 88.354C59.5817 88.354 74.4666 100.064 79.2625 116.126C87.118 119.671 92.8715 127.051 94.1386 135.878C95.5229 135.545 96.9691 135.367 98.456 135.367C102.732 135.367 106.668 136.825 109.792 139.271C110.774 133.071 116.145 128.329 122.621 128.329C123.434 128.329 124.23 128.405 125 128.548C125.771 128.405 126.566 128.329 127.379 128.329C133.856 128.329 139.226 133.071 140.208 139.271C143.332 136.825 147.268 135.367 151.544 135.367C153.031 135.367 154.475 135.545 155.861 135.878C157.128 127.051 162.882 119.671 170.737 116.126C175.535 100.064 190.418 88.354 208.04 88.354C212.711 88.354 217.19 89.1777 221.34 90.686V150.692H28.6611V90.6856C32.8111 89.1773 37.2896 88.3535 41.9615 88.3535H41.96V88.354Z" fill="white"/>
<path d="M145.565 64.6455C145.899 64.2866 143.777 70.7329 142.123 73.1421C140.47 75.5513 138.252 77.9385 138.252 77.9385L138.819 75.3096L132.721 81.0498L132.832 78.7857C132.832 78.7857 130.328 80.437 127.373 81.8521C124.527 83.2129 124.461 83.1529 125.611 80.2159C126.805 77.1636 128.271 74.5469 128.271 74.5469L126.021 74.8237L131.3 68.3242L128.72 69.082C128.72 69.082 130.938 66.6953 133.221 64.8706C135.504 63.0453 141.777 60.4599 141.444 60.8183L143.424 62.8207L145.566 64.6489V64.6464H145.565V64.6455Z" fill="white"/>
<path d="M160.999 54.2659L164.226 66.1795L149.078 83.309L150.007 62.7215L161 54.2659C161 54.2659 160.999 54.2659 160.999 54.2659Z" fill="#5960A4"/>
<path d="M150.67 44.6638L138.553 42.3157L122.574 58.6732L143.039 56.2435L150.669 44.6624L150.67 44.6638Z" fill="#5960A4"/>
<path d="M149.428 65.9286L144.654 61.4921L139.882 57.0565C149.068 46.3099 160.745 -2.06592 201.745 0.0703255C208.799 39.9182 158.701 57.0003 149.428 65.9286Z" fill="#3C9EB2"/>
<path d="M201.263 17.0324C195.176 14.3713 188.288 7.8278 185.371 2.16615C190.245 0.550902 195.671 -0.247443 201.744 0.0689652C202.838 6.25259 202.555 11.8884 201.263 17.0324Z" fill="#5960A4"/>
<path d="M136.854 60.2599L146.426 69.1562L149.603 65.7384L140.031 56.8421L136.854 60.2599Z" fill="#666666"/>
<path d="M180.585 31.1178C184.644 31.1178 187.934 27.8274 187.934 23.7686C187.934 19.7098 184.644 16.4194 180.585 16.4194C176.526 16.4194 173.236 19.7098 173.236 23.7686C173.236 27.8274 176.526 31.1178 180.585 31.1178Z" fill="#545B5C"/>
<path d="M180.585 29.8013C183.917 29.8013 186.618 27.1002 186.618 23.7681C186.618 20.436 183.917 17.7349 180.585 17.7349C177.253 17.7349 174.552 20.436 174.552 23.7681C174.552 27.1002 177.253 29.8013 180.585 29.8013Z" fill="#ABF7FC"/>
<path d="M122.825 72.6152C115.278 78.0552 102.078 115.782 132.126 135.76C132.126 135.76 109.176 109.035 130.84 83.3931C127.02 85.0445 119.932 91.2931 122.825 72.6152Z" fill="white"/>
<path d="M106.399 130.066C108.817 130.066 110.777 128.105 110.777 125.687C110.777 123.269 108.817 121.309 106.399 121.309C103.98 121.309 102.02 123.269 102.02 125.687C102.02 128.105 103.98 130.066 106.399 130.066Z" fill="white"/>
<path d="M126.296 118.85C127.066 118.85 127.69 118.226 127.69 117.456C127.69 116.686 127.066 116.062 126.296 116.062C125.526 116.062 124.902 116.686 124.902 117.456C124.902 118.226 125.526 118.85 126.296 118.85Z" fill="white"/>
<path d="M109.313 114.744C110.364 114.744 111.216 113.892 111.216 112.841C111.216 111.79 110.364 110.938 109.313 110.938C108.261 110.938 107.409 111.79 107.409 112.841C107.409 113.892 108.261 114.744 109.313 114.744Z" fill="white"/>
<path d="M142.475 131.05C143.518 131.05 144.364 130.205 144.364 129.162C144.364 128.119 143.518 127.274 142.475 127.274C141.433 127.274 140.587 128.119 140.587 129.162C140.587 130.205 141.433 131.05 142.475 131.05Z" fill="white"/>
<path d="M148.958 198.864L166.583 204.512H83.4165L97.6373 198.864V181.427H148.958V198.864H148.958Z" fill="#3C9EB2"/>
<path d="M148.958 198.864L97.6368 181.427H148.958V198.864Z" fill="#308EA1"/>
<path d="M97.6368 198.865H148.958L166.583 204.512V206.944H125.001H83.4165V204.512L97.6368 198.865Z" fill="#308EA1"/>
<path d="M125 173.154C127.108 173.154 128.817 171.445 128.817 169.337C128.817 167.23 127.108 165.521 125 165.521C122.892 165.521 121.184 167.23 121.184 169.337C121.184 171.445 122.892 173.154 125 173.154Z" fill="white"/>
</svg>
