<svg width="16" height="16" viewBox="0 0 16 16" fill="none" xmlns="http://www.w3.org/2000/svg">
<path opacity="0.7" d="M4.53333 6.2781V3.42857C4.53333 2.37714 5.728 1.52381 7.2 1.52381C8.672 1.52381 9.86667 2.37714 9.86667 3.42857V6.2781C11.1573 5.66095 12 4.61714 12 3.42857C12 1.53143 9.856 0 7.2 0C4.544 0 2.4 1.53143 2.4 3.42857C2.4 4.61714 3.24267 5.66095 4.53333 6.2781ZM15.0293 9.80571L10.1867 8.08381C10.0053 8.03048 9.81333 8 9.61067 8H8.8V3.42857C8.8 2.79619 8.08533 2.28571 7.2 2.28571C6.31467 2.28571 5.6 2.79619 5.6 3.42857V11.6114L1.94133 11.0629C1.856 11.0552 1.78133 11.04 1.68533 11.04C1.35467 11.04 1.056 11.139 0.842667 11.2914L0 11.901L5.26933 15.6648C5.55733 15.8705 5.96267 16 6.4 16H13.6427C14.4427 16 15.0613 15.581 15.1787 15.0248L15.9787 11.0095C15.9893 10.9562 16 10.9029 16 10.8571C16 10.3848 15.5947 9.97333 15.0293 9.80571Z" fill="#B23C43"/>
</svg>
