<svg width="19" height="21" viewBox="0 0 19 21" fill="none" xmlns="http://www.w3.org/2000/svg">
<g clip-path="url(#clip0)">
<path d="M9.50352 5.78318C6.80619 5.78318 4.63052 7.88728 4.63052 10.4959C4.63052 13.1045 6.80619 15.2086 9.50352 15.2086C12.2008 15.2086 14.3765 13.1045 14.3765 10.4959C14.3765 7.88728 12.2008 5.78318 9.50352 5.78318ZM9.50352 13.5597C7.76044 13.5597 6.33544 12.1857 6.33544 10.4959C6.33544 8.80603 7.75619 7.43201 9.50352 7.43201C11.2508 7.43201 12.6716 8.80603 12.6716 10.4959C12.6716 12.1857 11.2466 13.5597 9.50352 13.5597ZM15.7124 5.5904C15.7124 6.20154 15.2035 6.68962 14.5758 6.68962C13.9439 6.68962 13.4392 6.19744 13.4392 5.5904C13.4392 4.98337 13.9482 4.49119 14.5758 4.49119C15.2035 4.49119 15.7124 4.98337 15.7124 5.5904ZM18.9399 6.70603C18.8678 5.23357 18.52 3.92927 17.4046 2.85466C16.2935 1.78005 14.9448 1.44373 13.4223 1.3699C11.8531 1.28376 7.14972 1.28376 5.58052 1.3699C4.06222 1.43962 2.71356 1.77595 1.59816 2.85056C0.482757 3.92517 0.13923 5.22947 0.0628906 6.70193C-0.0261719 8.21951 -0.0261719 12.7681 0.0628906 14.2857C0.134989 15.7582 0.482757 17.0625 1.59816 18.1371C2.71356 19.2117 4.05798 19.548 5.58052 19.6218C7.14972 19.708 11.8531 19.708 13.4223 19.6218C14.9448 19.5521 16.2935 19.2158 17.4046 18.1371C18.5158 17.0625 18.8636 15.7582 18.9399 14.2857C19.029 12.7681 19.029 8.22361 18.9399 6.70603ZM16.9127 15.914C16.5819 16.7179 15.9415 17.3373 15.106 17.6613C13.8549 18.1412 10.8861 18.0304 9.50352 18.0304C8.12093 18.0304 5.14794 18.1371 3.90106 17.6613C3.06981 17.3414 2.42941 16.722 2.09436 15.914C1.59816 14.7041 1.71267 11.833 1.71267 10.4959C1.71267 9.15876 1.6024 6.28357 2.09436 5.07771C2.42517 4.2738 3.06557 3.65447 3.90106 3.33044C5.15218 2.85056 8.12093 2.9613 9.50352 2.9613C10.8861 2.9613 13.8591 2.85466 15.106 3.33044C15.9372 3.65037 16.5776 4.2697 16.9127 5.07771C17.4089 6.28767 17.2944 9.15876 17.2944 10.4959C17.2944 11.833 17.4089 14.7082 16.9127 15.914Z" fill="white"/>
</g>
<defs>
<clipPath id="clip0">
<rect width="19" height="21" fill="white"/>
</clipPath>
</defs>
</svg>
